# xmcd
#
# Track frame offsets: 
#        150
#        60933
#        98469
#        119854
#        139606
#        170838
#        199555
#        220986
#        248373
#        272200
#        305424
#
# Disc length: 4420 seconds
#
# Revision: 2
# Processed by: cddbd v1.5.2PL0 Copyright (c) Steve Scherf et al.
# Submitted via: ExactAudioCopy v1.1
#
DISCID=9911420b
DTITLE=Miles Davis, 1954 - 55 - CD03_Walkin - The Musing's Of Miles
DYEAR=2013
DGENRE=Jazz
TTITLE0=Miles Davis, 1954 - Walkin
TTITLE1=Miles Davis, 1954 - Blue 'N' Boogie
TTITLE2=Miles Davis, 1954 - Solar
TTITLE3=Miles Davis, 1954 - You Don't Know What Love Is
TTITLE4=Miles Davis, 1954 - Love Me Or Leave Me
TTITLE5=Miles Davis, 1955 - Will You Still Be Mine
TTITLE6=Miles Davis, 1955 - I See Your Face Before Me
TTITLE7=Miles Davis, 1955 - I Didn't
TTITLE8=Miles Davis, 1955 - A Gal In Calico
TTITLE9=Miles Davis, 1955 - A Night In Tunesia
TTITLE10=Miles Davis, 1955 - Green Haze
EXTD=YEAR: 1954
EXTT0=
EXTT1=
EXTT2=
EXTT3=
EXTT4=
EXTT5=
EXTT6=
EXTT7=
EXTT8=
EXTT9=
EXTT10=
PLAYORDER=
